Simulation
nRows=40
nColumns=15
endheader
time  TH_x TH_y TH_z SC_y  SC_z  SC_x  AC_y  AC_z  AC_x  GH_y  GH_z  GH_yy  EL_x  PS_y
2.681  0.000000  0.000000  0.000000  -23.189855526621564  7.365995474029704  -0.6338039866903488  49.957505394531026  6.733417122393824  1.5722750952292468  -14.492905104011093  7.103658439511158  49.57671049400356  15.839731939111726  120.000000
2.73462  0.000000  0.000000  0.000000  -22.580077733239563  6.889599387950205  -1.1632918213209347  50.279888652257625  7.19323651783738  1.8120407803273844  -13.939781350208003  5.49794117935256  51.93320138160322  16.90396936743834  120.000000
2.78824  0.000000  0.000000  0.000000  -22.355342601643166  6.531295622970883  -1.5022050188080895  50.585243185220634  7.754637335049539  2.0159115355588844  -9.925795644101292  4.112461537916849  50.089112751470935  17.766513265302493  120.000000
2.84186  0.000000  0.000000  0.000000  -22.42588430091184  6.277017547095663  -1.690047555671418  50.84505151107844  8.379308823373442  2.173636339904992  -0.42445134991169803  3.001029653736071  42.093519588859365  18.386942854664298  120.000000
2.89548  0.000000  0.000000  0.000000  -22.673580530864314  6.1027845597442765  -1.7658298958185086  51.052363649430234  9.025986563213193  2.2856751432038216  16.274027095055178  2.2706107643045157  26.36752580887905  18.7589790798134  120.000000
2.9491  0.000000  0.000000  0.000000  -22.98516653251914  5.981610329099324  -1.7643315391206666  51.21699270153172  9.655563654946409  2.359190147323917  37.02256874971377  1.980829300088516  6.19918568519525  18.902501344213075  120.000000
3.00272  0.000000  0.000000  0.000000  -23.27624121957736  5.889109625448971  -1.7156532408484617  51.35552803313148  10.235989605845027  2.4046568735516427  53.49766032654052  2.00726282689334  -9.967697964156505  18.86112718193659  120.000000
3.05634  0.000000  0.000000  0.000000  -23.49897907561314  5.807260110218572  -1.6476341955262543  51.48353736122723  10.745206532916649  2.433538637923346  62.38192235047002  2.1478171766374556  -18.726012714456644  18.69597076469835  120.000000
3.10996  0.000000  0.000000  0.000000  -23.63565374567223  5.725210296812929  -1.5893954920001907  51.61196315983764  11.172948648573621  2.458301836995734  65.39361264871955  2.299283983248215  -21.72971894126612  18.47289350871165  120.000000
3.16358  0.000000  0.000000  0.000000  -23.687439075296755  5.63761885044416  -1.5656959952047482  51.74609184795789  11.516390640795025  2.4904211505504734  64.69913361529383  2.4489509333161887  -21.098501726469337  18.2466674594589  120.000000
3.2172  0.000000  0.000000  0.000000  -23.665897878648128  5.5426800321787315  -1.589317459892042  51.88486161876176  11.774614009937071  2.537244955228997  61.933645256882365  2.617287090683442  -18.434367058015024  18.04844997591918  120.000000
3.27082  0.000000  0.000000  0.000000  -23.586983107567196  5.441752844078132  -1.6640179109809032  52.02263059883989  11.950406924034434  2.6026977166174987  58.311958644624085  2.8252279125430433  -14.930133260103686  17.883507585050232  120.000000
3.32444  0.000000  0.000000  0.000000  -23.465884204686247  5.341515944691828  -1.788189552361042  52.15377389671681  12.051925774010913  2.687624232550494  54.67483797955731  3.0856119016562196  -11.41406506313819  17.741085662252946  120.000000
3.37806  0.000000  0.000000  0.000000  -23.314514761827073  5.25152757424218  -1.9578641890668071  52.27417575352295  12.091029836815288  2.7900409204462107  51.482227538938226  3.4040566615493395  -8.340809709237114  17.60677022760453  120.000000
3.43168  0.000000  0.000000  0.000000  -23.141568749631283  5.1794462324770745  -2.169224953963735  52.378558442649435  12.079386182944116  2.907103663403983  48.8698781356617  3.780514262921737  -5.845416828532793  17.471534153970687  120.000000
3.4853  0.000000  0.000000  0.000000  -22.951835454763795  5.128344575424556  -2.4195979221925255  52.45966465577508  12.025376417918945  3.03642569878454  46.76453184810432  4.211689995437008  -3.855354598467989  17.33518612243833  120.000000
3.53892  0.000000  0.000000  0.000000  -22.74562070909848  5.096195076657233  -2.7077865943009187  52.50960353240113  11.933043246327937  3.1758516435424538  44.99732379799751  4.693362684215543  -2.2017101614853254  17.2038149112377  120.000000
3.59254  0.000000  0.000000  0.000000  -22.518001674051106  5.076736179778645  -3.0341068689623234  52.522108720451975  11.802839427269749  3.3227670787715455  43.37055089885811  5.221801571138807  -0.6840487117172636  17.083097856569456  120.000000
3.64616  0.000000  0.000000  0.000000  -22.259093026779272  5.060833777149762  -3.399984663443768  52.494056216377466  11.633563527560668  3.473982955864388  41.6882706820526  5.795183668293347  0.8995117204250297  16.971278419156203  120.000000
3.69978  0.000000  0.000000  0.000000  -21.955290673581313  5.038130238187842  -3.8075440636494653  52.42687044189758  11.425049956292092  3.6257696333676668  39.77803408690877  6.416417685874731  2.7289909300850317  16.855394202407012  120.000000
3.7534  0.000000  0.000000  0.000000  -21.593423949828605  4.998156030937359  -4.259179819268765  52.32614320852122  11.180460386564516  3.774091111896047  37.51653612617596  7.096990600272561  4.93145767489368  16.71319040153806  120.000000
3.80702  0.000000  0.000000  0.000000  -21.167297128388455  4.930855934504293  -4.756827533220653  52.199127048590796  10.907077230446145  3.9152282209126903  34.85527369874379  7.8600944354366975  7.547340985519363  16.518324348229353  120.000000
3.86064  0.000000  0.000000  0.000000  -20.68519442090642  4.826548043486447  -5.301245507071032  52.05148649776971  10.615828401345617  4.046567438058867  31.842371590734682  8.741766536046919  10.50025903335692  16.245966669849924  120.000000
3.91426  0.000000  0.000000  0.000000  -20.172739570121294  4.676555868054411  -5.892290916159255  51.88726427663814  10.32082012570319  4.166677976211196  28.62020193415691  9.78853943139834  13.596507315516511  15.876766623384757  120.000000
3.96788  0.000000  0.000000  0.000000  -19.66923752529221  4.4755962573081325  -6.529028581383119  51.71179634024004  10.039754488305526  4.276051014937105  25.381474013959437  11.051770091995449  16.57497936622751  15.399585161758937  120.000000
4.0215  0.000000  0.000000  0.000000  -19.218930412578477  4.223277469110835  -7.207983755598668  51.53450328067566  9.79647905331799  4.378832953538863  22.295901331287784  12.58181390153738  19.19433637210871  14.815244046356543  120.000000
4.07512  0.000000  0.000000  0.000000  -18.863066132738176  3.924275698100236  -7.920066002616185  51.36960309885812  9.622873321566441  4.484052320736798  19.45588696191802  14.42413365830485  21.30409580588994  14.144490227917773  120.000000
4.1287400000000005  0.000000  0.000000  0.000000  -18.63374435274152  3.58938258242885  -8.649237497004323  51.237184400867555  9.557569683534462  4.603451029214799  16.87258930459216  16.615917854979358  22.861223750228486  13.435842581136304  120.000000
4.18236  0.000000  0.000000  0.000000  -18.55370599170724  3.234896087590644  -9.371079901234852  51.16026696005909  9.641703973761466  4.748945055042519  14.51130284094139  19.18157135037502  23.89268752738173  12.761015493434362  120.000000
4.23598  0.000000  0.000000  0.000000  -18.636899171794976  2.8814151342744676  -10.0504681299784  51.16083092631776  9.913154456491075  4.928581720666155  12.331427799220016  22.124585818580037  24.443043768288693  12.194967579053829  120.000000
4.2896  0.000000  0.000000  0.000000  -18.882834288220312  2.554237439691926  -10.641369437035214  51.26093509920952  10.402017768162992  5.14052388557994  10.307735966904328  25.41563342246542  24.539995795915328  11.788637828331433  120.000000
4.3432200000000005  0.000000  0.000000  0.000000  -19.265944525672975  2.2809509664802117  -11.08510866623283  51.481440511355785  11.12712365782698  5.372339440979199  8.426317999470239  28.980927339973356  24.1929726158715  11.546737607076958  120.000000
4.39684  0.000000  0.000000  0.000000  -19.735888869565944  2.0770327122257934  -11.318754016601071  51.824855393209816  12.093847065863443  5.6175756449251635  6.66248613503552  32.69519501600913  23.420298781750702  11.425953443276153  120.000000
4.45046  0.000000  0.000000  0.000000  -20.228024628183224  1.9464215742657587  -11.297889356902724  52.277755483137824  13.291968085283706  5.874894743730339  4.982314463289051  36.39621150029927  22.263178641102385  11.357905623156487  120.000000
4.50408  0.000000  0.000000  0.000000  -20.679737073868047  1.8969258799390138  -10.998070021306258  52.82322312690675  14.685175374974708  6.132461945524958  3.35874856479396  39.92479524073377  20.78843214987356  11.278631518565282  120.000000
4.5577000000000005  0.000000  0.000000  0.000000  -21.05399075930269  1.9367790399867704  -10.40196214638818  53.42737695633653  16.20460464830345  6.383158548156378  1.775599993329138  43.162301325431535  19.09960546564729  11.151568334267097  120.000000
4.61132  0.000000  0.000000  0.000000  -21.341595133599007  2.0716749264863936  -9.496752707547282  54.04374119520844  17.75371731582707  6.632429597280412  0.23769658507503663  46.04850435720442  17.32931597177001  10.976387499385613  120.000000
4.66494  0.000000  0.000000  0.000000  -21.554431562657257  2.3059761273318506  -8.272877441935146  54.62697474756057  19.22039555919112  6.891069201640953  -1.225929977052355  48.58063471596418  15.617412259687379  10.780069598815222  120.000000
4.71856  0.000000  0.000000  0.000000  -21.72345608907305  2.6401191280840064  -6.729521791011477  55.136513264988004  20.49614736090214  7.172583934610571  -2.5757995991133806  50.79672305825445  14.088640652784926  10.599290250902564  120.000000
4.7721800000000005  0.000000  0.000000  0.000000  -21.89407818916173  3.0674054351898037  -4.884187680560678  55.5429629082741  21.495555615049668  7.489187425519893  -3.773788596174992  52.75465531583255  12.827431719231326  10.466257564902818  120.000000
